<mxfile host="app.diagrams.net" modified="2024-12-03T03:15:14.928Z" agent="Mozilla/5.0 (Windows NT 10.0; Win64; x64) AppleWebKit/537.36 (KHTML, like Gecko) Chrome/131.0.0.0 Safari/537.36" etag="t6lCsZIUuRIgZoB2f-K6" version="24.4.9" type="github">
  <diagram name="第 1 页" id="h-kJyA-lv_k0Xgh3hI3_">
    <mxGraphModel dx="2049" dy="-115" grid="1" gridSize="10" guides="1" tooltips="1" connect="1" arrows="1" fold="1" page="1" pageScale="1" pageWidth="827" pageHeight="1169" math="0" shadow="0">
      <root>
        <mxCell id="0" />
        <mxCell id="1" parent="0" />
        <mxCell id="MVd7tDYTYP6lwRs-U0C5-4" value="" style="group" vertex="1" connectable="0" parent="1">
          <mxGeometry x="120" y="2700" width="1700" height="150" as="geometry" />
        </mxCell>
        <mxCell id="MVd7tDYTYP6lwRs-U0C5-1" value="" style="rounded=0;whiteSpace=wrap;html=1;fontSize=11;strokeWidth=1;" vertex="1" parent="MVd7tDYTYP6lwRs-U0C5-4">
          <mxGeometry width="1700" height="150" as="geometry" />
        </mxCell>
        <mxCell id="MVd7tDYTYP6lwRs-U0C5-3" value="&lt;font style=&quot;font-size: 18px;&quot;&gt;&lt;b&gt;Basic&lt;/b&gt;&lt;/font&gt;&lt;div&gt;&lt;font style=&quot;font-size: 18px;&quot;&gt;&lt;b&gt;Middlewares&lt;/b&gt;&lt;/font&gt;&lt;/div&gt;" style="rounded=0;whiteSpace=wrap;html=1;fillColor=#f8cecc;strokeColor=#b85450;" vertex="1" parent="MVd7tDYTYP6lwRs-U0C5-4">
          <mxGeometry width="170" height="150" as="geometry" />
        </mxCell>
        <mxCell id="MVd7tDYTYP6lwRs-U0C5-26" value="&lt;font color=&quot;#ffffff&quot; style=&quot;font-size: 18px;&quot;&gt;&lt;b&gt;RabbitMQ&lt;/b&gt;&lt;/font&gt;" style="rounded=1;whiteSpace=wrap;html=1;labelBorderColor=none;fillColor=#fa6800;strokeColor=none;fontColor=#000000;" vertex="1" parent="MVd7tDYTYP6lwRs-U0C5-4">
          <mxGeometry x="322" y="40" width="141" height="70" as="geometry" />
        </mxCell>
        <mxCell id="MVd7tDYTYP6lwRs-U0C5-31" value="&lt;font color=&quot;#ffffff&quot; style=&quot;font-size: 18px;&quot;&gt;&lt;b&gt;Redis&lt;/b&gt;&lt;/font&gt;" style="rounded=1;whiteSpace=wrap;html=1;labelBorderColor=none;fillColor=#fa6800;strokeColor=none;fontColor=#000000;" vertex="1" parent="MVd7tDYTYP6lwRs-U0C5-4">
          <mxGeometry x="592" y="40" width="141" height="70" as="geometry" />
        </mxCell>
        <mxCell id="MVd7tDYTYP6lwRs-U0C5-32" value="&lt;font color=&quot;#ffffff&quot; style=&quot;font-size: 18px;&quot;&gt;&lt;b&gt;Nacos&lt;/b&gt;&lt;/font&gt;" style="rounded=1;whiteSpace=wrap;html=1;labelBorderColor=none;fillColor=#fa6800;strokeColor=none;fontColor=#000000;" vertex="1" parent="MVd7tDYTYP6lwRs-U0C5-4">
          <mxGeometry x="872" y="40" width="141" height="70" as="geometry" />
        </mxCell>
        <mxCell id="MVd7tDYTYP6lwRs-U0C5-34" value="&lt;font color=&quot;#ffffff&quot; style=&quot;font-size: 18px;&quot;&gt;&lt;b&gt;MySQL&lt;/b&gt;&lt;/font&gt;" style="rounded=1;whiteSpace=wrap;html=1;labelBorderColor=none;fillColor=#fa6800;strokeColor=none;fontColor=#000000;" vertex="1" parent="MVd7tDYTYP6lwRs-U0C5-4">
          <mxGeometry x="1152" y="40" width="141" height="70" as="geometry" />
        </mxCell>
        <mxCell id="MVd7tDYTYP6lwRs-U0C5-33" value="&lt;font color=&quot;#ffffff&quot; style=&quot;font-size: 18px;&quot;&gt;&lt;b&gt;SFTP&lt;/b&gt;&lt;/font&gt;" style="rounded=1;whiteSpace=wrap;html=1;labelBorderColor=none;fillColor=#fa6800;strokeColor=none;fontColor=#000000;" vertex="1" parent="MVd7tDYTYP6lwRs-U0C5-4">
          <mxGeometry x="1432" y="40" width="141" height="70" as="geometry" />
        </mxCell>
        <mxCell id="MVd7tDYTYP6lwRs-U0C5-5" value="" style="group" vertex="1" connectable="0" parent="1">
          <mxGeometry x="120" y="1250" width="1390" height="150" as="geometry" />
        </mxCell>
        <mxCell id="MVd7tDYTYP6lwRs-U0C5-6" value="" style="rounded=0;whiteSpace=wrap;html=1;fontSize=11;strokeWidth=1;" vertex="1" parent="MVd7tDYTYP6lwRs-U0C5-5">
          <mxGeometry width="1390" height="150" as="geometry" />
        </mxCell>
        <mxCell id="MVd7tDYTYP6lwRs-U0C5-7" value="&lt;font style=&quot;font-size: 18px;&quot;&gt;&lt;b&gt;Access&lt;/b&gt;&lt;/font&gt;" style="rounded=0;whiteSpace=wrap;html=1;fillColor=#f8cecc;strokeColor=#b85450;" vertex="1" parent="MVd7tDYTYP6lwRs-U0C5-5">
          <mxGeometry width="170" height="150" as="geometry" />
        </mxCell>
        <mxCell id="MVd7tDYTYP6lwRs-U0C5-11" value="" style="group" vertex="1" connectable="0" parent="1">
          <mxGeometry x="120" y="1460" width="1390" height="150" as="geometry" />
        </mxCell>
        <mxCell id="MVd7tDYTYP6lwRs-U0C5-12" value="" style="rounded=0;whiteSpace=wrap;html=1;fontSize=11;strokeWidth=1;" vertex="1" parent="MVd7tDYTYP6lwRs-U0C5-11">
          <mxGeometry width="1390" height="150" as="geometry" />
        </mxCell>
        <mxCell id="MVd7tDYTYP6lwRs-U0C5-13" value="&lt;font style=&quot;font-size: 18px;&quot;&gt;&lt;b&gt;Gateway&lt;/b&gt;&lt;/font&gt;" style="rounded=0;whiteSpace=wrap;html=1;fillColor=#f8cecc;strokeColor=#b85450;" vertex="1" parent="MVd7tDYTYP6lwRs-U0C5-11">
          <mxGeometry width="170" height="150" as="geometry" />
        </mxCell>
        <mxCell id="MVd7tDYTYP6lwRs-U0C5-24" value="" style="group" vertex="1" connectable="0" parent="1">
          <mxGeometry x="120" y="1680" width="1390" height="1000" as="geometry" />
        </mxCell>
        <mxCell id="MVd7tDYTYP6lwRs-U0C5-15" value="" style="rounded=0;whiteSpace=wrap;html=1;fontSize=11;strokeWidth=1;" vertex="1" parent="MVd7tDYTYP6lwRs-U0C5-24">
          <mxGeometry width="1390" height="1000" as="geometry" />
        </mxCell>
        <mxCell id="MVd7tDYTYP6lwRs-U0C5-16" value="&lt;font style=&quot;font-size: 18px;&quot;&gt;&lt;b&gt;Business&lt;/b&gt;&lt;/font&gt;&lt;div&gt;&lt;font style=&quot;font-size: 18px;&quot;&gt;&lt;b&gt;Services&lt;/b&gt;&lt;/font&gt;&lt;/div&gt;" style="rounded=0;whiteSpace=wrap;html=1;fillColor=#f8cecc;strokeColor=#b85450;" vertex="1" parent="MVd7tDYTYP6lwRs-U0C5-24">
          <mxGeometry width="170" height="1000" as="geometry" />
        </mxCell>
        <mxCell id="MVd7tDYTYP6lwRs-U0C5-25" value="" style="group" vertex="1" connectable="0" parent="1">
          <mxGeometry x="1630" y="1250" width="186" height="1430" as="geometry" />
        </mxCell>
        <mxCell id="MVd7tDYTYP6lwRs-U0C5-18" value="" style="rounded=0;whiteSpace=wrap;html=1;fontSize=11;strokeWidth=1;" vertex="1" parent="MVd7tDYTYP6lwRs-U0C5-25">
          <mxGeometry width="186" height="1430" as="geometry" />
        </mxCell>
        <mxCell id="MVd7tDYTYP6lwRs-U0C5-23" value="&lt;font style=&quot;font-size: 18px;&quot;&gt;&lt;b&gt;Third Party&lt;/b&gt;&lt;/font&gt;&lt;div&gt;&lt;font style=&quot;font-size: 18px;&quot;&gt;&lt;b&gt;Integration&lt;/b&gt;&lt;/font&gt;&lt;/div&gt;" style="rounded=0;whiteSpace=wrap;html=1;fillColor=#f8cecc;strokeColor=#b85450;" vertex="1" parent="MVd7tDYTYP6lwRs-U0C5-25">
          <mxGeometry width="186" height="150" as="geometry" />
        </mxCell>
      </root>
    </mxGraphModel>
  </diagram>
</mxfile>
